:FULLY-SPECIFIED
:FORCE-ALL-JOINTS-BE-3DOF
:DEGREES
544
root 8.25073 13.9079 -3.52034 179.4 46.7988 177.149
lfemur -34.0454 -5.94675 -15.9668
ltibia 89.6947 -0 0
lfoot -39.0146 -10.9216 0.029883
ltoes -5.56828 0 0
rfemur -49.1584 -8.22823 -3.29313
rtibia 65.0978 -0 0
rfoot -10.7078 1.2026 0.0496367
rtoes -39.4915 0 0
lowerback 13.279 1.00115 1.79938
upperback 7.09407 2.53729 7.14593
thorax -0.226513 1.56869 6.16664
lowerneck -2.11624 -15.9044 -6.00761
upperneck 8.83864 -21.5992 8.77408
head 4.6099 -10.4385 2.3126
lclavicle 7.15625e-14 -9.70069e-14 0
lhumerus -45.5548 -12.3109 104.044
lradius 56.4196 -0 0
lwrist 31.3107 0 0
lhand -24.6949 -2.71551 -0.00967193
lfingers 7.12502 -0 0
lthumb 1.80644 27.2575 -0.00858499
rclavicle 7.15625e-14 -9.70069e-14 0
rhumerus 4.80605 18.6709 -90.5064
rradius 135.277 -0 0
rwrist -45.8908 0 0
rhand -30.1897 -23.8437 -0.0103836
rfingers 7.12502 -0 0
rthumb -3.49794 -53.8149 -0.020572
545
root 8.2831 13.903 -3.49513 -180.648 46.7585 -182.911
lfemur -33.9582 -5.75614 -15.7497
ltibia 89.6009 0 0
lfoot -39.2334 -11.3853 0
ltoes -5.48296 0 0
rfemur -49.1752 -8.3794 -3.08424
rtibia 65.2839 0 0
rfoot -11.0681 0.94276 0
rtoes -39.2691 0 0
lowerback 13.2093 0.947444 1.72355
upperback 7.08019 2.44684 7.07191
thorax -0.192668 1.51966 6.14401
lowerneck -2.01192 -15.8516 -5.93689
upperneck 8.65585 -21.53 8.82835
head 4.53042 -10.41 2.34267
lclavicle 1.35174e-14 -7.31528e-14 0
lhumerus -45.6705 -11.7212 103.63
lradius 56.1593 0 0
lwrist 31.5932 0 0
lhand -24.8892 -2.61399 0
lfingers 7.12502 0 0
lthumb 1.6186 27.3596 0
rclavicle 1.35174e-14 -7.31528e-14 0
rhumerus 4.75935 19.0061 -90.6183
rradius 135.142 0 0
rwrist -45.6418 0 0
rhand -30.1378 -23.7796 0
rfingers 7.12502 0 0
rthumb -3.45053 -773.731 0
546
root 8.30661 13.9169 -3.47382 179.355 46.7967 177.058
lfemur -33.7946 -5.4694 -15.5866
ltibia 89.2932 -0 0
lfoot -39.3966 -11.7252 -0.0261835
ltoes -5.48268 0 0
rfemur -49.0984 -8.35127 -2.92119
rtibia 65.0782 -0 0
rfoot -11.1306 0.79674 -0.0326344
rtoes -39.1048 0 0
lowerback 13.1147 0.879591 1.63429
upperback 7.03595 2.3309 6.98678
thorax -0.174772 1.45573 6.12001
lowerneck -1.93149 -15.8005 -5.86909
upperneck 8.51536 -21.4614 8.84086
head 4.46354 -10.3816 2.35738
lclavicle 1.35174e-14 -7.31528e-14 0
lhumerus -45.7689 -11.1945 103.281
lradius 55.9133 -0 0
lwrist 31.7571 0 0
lhand -25.0883 -2.59545 0.00733856
lfingers 7.12502 -0 0
lthumb 1.42637 27.3816 0.00724496
rclavicle 1.35174e-14 -7.31528e-14 0
rhumerus 4.98604 19.2189 -90.5439
rradius 135.051 -0 0
rwrist -45.4489 0 0
rhand -30.1399 -23.7089 0.00143386
rfingers 7.12502 -0 0
rthumb -3.45259 -53.6605 0.00138669
547
root 8.32306 13.9485 -3.45618 179.402 46.9069 177.05
lfemur -33.5597 -5.08659 -15.4593
ltibia 88.7806 -0 0
lfoot -39.5182 -12.0009 -0.0506677
ltoes -5.56441 0 0
rfemur -48.9424 -8.13862 -2.79483
rtibia 64.5174 -0 0
rfoot -10.9341 0.741868 -0.0509246
rtoes -38.9586 0 0
lowerback 12.9925 0.794398 1.52714
upperback 6.95962 2.18414 6.88416
thorax -0.172721 1.37409 6.09117
lowerneck -1.8687 -15.7453 -5.79826
upperneck 8.40127 -21.3859 8.81469
head 4.40258 -10.35 2.35893
lclavicle 1.35174e-14 -7.31528e-14 0
lhumerus -45.8643 -10.698 102.993
lradius 55.6595 -0 0
lwrist 31.8069 0 0
lhand -25.2704 -2.64463 0.0132854
lfingers 7.12502 -0 0
lthumb 1.25048 27.3353 0.0131205
rclavicle 1.35174e-14 -7.31528e-14 0
rhumerus 5.41797 19.3703 -90.2848
rradius 134.975 -0 0
rwrist -45.2713 0 0
rhand -30.0985 -23.6155 0.0032009
rfingers 7.12502 -0 0
rthumb -3.41257 -53.5677 0.00308563
548
root 8.33285 13.9959 -3.44192 179.489 47.0873 177.063
lfemur -33.2599 -4.62324 -15.3639
ltibia 88.0815 -0 0
lfoot -39.6006 -12.2118 -0.0726751
ltoes -5.713 0 0
rfemur -48.7195 -7.7687 -2.69576
rtibia 63.6481 -0 0
rfoot -10.5081 0.767794 -0.056407
rtoes -38.8268 0 0
lowerback 12.8458 0.694335 1.40434
upperback 6.85484 2.01084 6.76632
thorax -0.184748 1.27722 6.05803
lowerneck -1.82277 -15.6866 -5.72487
upperneck 8.31168 -21.3041 8.75402
head 4.34744 -10.3156 2.34862
lclavicle 1.35174e-14 -7.31528e-14 0
lhumerus -45.9541 -10.234 102.756
lradius 55.4009 -0 0
lwrist 31.7548 0 0
lhand -25.4352 -2.75265 0.0176769
lfingers 7.12502 -0 0
lthumb 1.09133 27.2296 0.0174677
rclavicle 1.35174e-14 -7.31528e-14 0
rhumerus 6.03211 19.4637 -89.8619
rradius 134.912 -0 0
rwrist -45.1088 0 0
rhand -30.0182 -23.5023 0.00514316
rfingers 7.12502 -0 0
rthumb -3.33506 -53.4556 0.00494636
549
root 8.33639 14.0573 -3.43075 179.613 47.3359 177.096
lfemur -32.902 -4.09477 -15.2968
ltibia 87.2143 -0 0
lfoot -39.6464 -12.3577 -0.0915794
ltoes -5.91331 0 0
rfemur -48.4418 -7.26862 -2.61429
rtibia 62.5166 -0 0
rfoot -9.88158 0.864308 -0.0514994
rtoes -38.7055 0 0
lowerback 12.6773 0.581874 1.26812
upperback 6.72527 1.8153 6.63559
thorax -0.209084 1.16757 6.02116
lowerneck -1.79293 -15.6245 -5.6494
upperneck 8.24469 -21.2168 8.66303
head 4.29797 -10.2786 2.32776
lclavicle 1.35174e-14 -7.31528e-14 0
lhumerus -46.0361 -9.80473 102.564
lradius 55.1404 -0 0
lwrist 31.6126 0 0
lhand -25.5823 -2.91062 0.0204576
lfingers 7.12502 -0 0
lthumb 0.949334 27.0734 0.0202328
rclavicle 1.35174e-14 -7.31528e-14 0
rhumerus 6.80466 19.5016 -89.2968
rradius 134.862 -0 0
rwrist -44.9611 0 0
rhand -29.904 -23.3726 0.00708621
rfingers 7.12502 -0 0
rthumb -3.22469 -53.3273 0.00680314
550
root 8.33409 14.1307 -3.42236 179.769 47.6507 177.146
lfemur -32.4927 -3.51652 -15.2542
ltibia 86.1974 -0 0
lfoot -39.6579 -12.4383 -0.106894
ltoes -6.15021 0 0
rfemur -48.1217 -6.66553 -2.54078
rtibia 61.1693 -0 0
rfoot -9.08372 1.02127 -0.0391163
rtoes -38.5908 0 0
lowerback 12.4901 0.459498 1.12071
upperback 6.57453 1.6018 6.49426
thorax -0.243966 1.04763 5.98112
lowerneck -1.77841 -15.5595 -5.57229
upperneck 8.19841 -21.1247 8.54592
head 4.25406 -10.2392 2.29764
lclavicle 1.35174e-14 -7.31528e-14 0
lhumerus -46.1082 -9.41244 102.407
lradius 54.881 -0 0
lwrist 31.3926 0 0
lhand -25.7111 -3.10968 0.0216689
lfingers 7.12502 -0 0
lthumb 0.82491 26.8757 0.0214561
rclavicle 1.35174e-14 -7.31528e-14 0
rhumerus 7.71128 19.4861 -88.6118
rradius 134.821 -0 0
rwrist -44.8279 0 0
rhand -29.7604 -23.2294 0.00885667
rfingers 7.12502 -0 0
rthumb -3.08607 -53.1858 0.00849137
551
root 8.32634 14.2144 -3.41646 179.954 48.0299 177.212
lfemur -32.0386 -2.90381 -15.2327
ltibia 85.049 -0 0
lfoot -39.6375 -12.4533 -0.118257
ltoes -6.40855 0 0
rfemur -47.7716 -5.98659 -2.46586
rtibia 59.6526 -0 0
rfoot -8.14365 1.22853 -0.0223371
rtoes -38.479 0 0
lowerback 12.2868 0.329702 0.964327
upperback 6.4062 1.37465 6.3446
thorax -0.287633 0.919868 5.93845
lowerneck -1.77844 -15.4919 -5.49403
upperneck 8.17095 -21.0283 8.40687
head 4.21559 -10.1977 2.25958
lclavicle 1.35174e-14 -7.31528e-14 0
lhumerus -46.1686 -9.05944 102.277
lradius 54.6257 -0 0
lwrist 31.1066 0 0
lhand -25.8213 -3.34093 0.0214365
lfingers 7.12502 -0 0
lthumb 0.718475 26.6453 0.0212602
rclavicle 1.35174e-14 -7.31528e-14 0
rhumerus 8.72726 19.4198 -87.8294
rradius 134.789 -0 0
rwrist -44.7091 0 0
rhand -29.5924 -23.0759 0.010297
rfingers 7.12502 -0 0
rthumb -2.92382 -53.0342 0.00986175
552
root 8.31355 14.3064 -3.41277 -179.835 48.4713 177.292
lfemur -31.5465 -2.27193 -15.2291
ltibia 83.7875 -0 0
lfoot -39.5876 -12.4022 -0.125423
ltoes -6.67319 0 0
rfemur -47.4035 -5.25902 -2.38066
rtibia 58.013 -0 0
rfoot -7.0905 1.47591 -0.0041254
rtoes -38.3662 0 0
lowerback 12.0704 0.195009 0.801141
upperback 6.22385 1.1382 6.18882
thorax -0.338328 0.786758 5.8937
lowerneck -1.79226 -15.4219 -5.41508
upperneck 8.16044 -20.9284 8.25006
head 4.18243 -10.1544 2.21488
lclavicle 1.35174e-14 -7.31528e-14 0
lhumerus -46.2155 -8.74806 102.167
lradius 54.3774 -0 0
lwrist 30.7668 0 0
lhand -25.9124 -3.59552 0.0199579
lfingers 7.12502 -0 0
lthumb 0.630451 26.3912 0.0198371
rclavicle 1.35174e-14 -7.31528e-14 0
rhumerus 9.82779 19.3061 -86.9724
rradius 134.764 -0 0
rwrist -44.6043 0 0
rhand -29.4047 -22.9151 0.0112779
rfingers 7.12502 -0 0
rthumb -2.74254 -52.8755 0.0107918
